<?xml version="1.0" encoding="UTF-8" standalone="no"?>
<!DOCTYPE svg PUBLIC "-//W3C//DTD SVG 1.1//EN" "http://www.w3.org/Graphics/SVG/1.1/DTD/svg11.dtd">
<svg width="100%" height="100%" viewBox="0 0 288 199" version="1.1" xmlns="http://www.w3.org/2000/svg" xmlns:xlink="http://www.w3.org/1999/xlink" xml:space="preserve" xmlns:serif="http://www.serif.com/" style="fill-rule:evenodd;clip-rule:evenodd;stroke-linejoin:round;stroke-miterlimit:2;">
    <g transform="matrix(1,0,0,1,-206.307844,-135.002267)">
        <path d="M493.63,227.78C493.2,176.02 428.53,134.35 349.18,135.01C269.84,135.67 205.88,178.41 206.31,230.17C206.32,231.51 206.33,235.21 206.34,235.67C206.8,290.58 263.38,334.59 350.83,333.86C438.81,333.13 494.13,288.19 493.67,233.27L493.62,227.76L493.63,227.78ZM350.73,317.3C274.44,317.94 212.27,278.89 211.86,230.09C211.84,228.12 211.96,226.18 212.15,224.24L213.03,218.27C213.16,217.63 213.37,217.01 213.52,216.37C216.66,217.28 218.94,217.91 220.04,218.16C255.14,226.16 269.09,234.48 273.23,237.45C275.94,235.03 279.5,233.66 283.1,233.66L283.11,233.66C287.32,233.66 291.27,235.46 294.08,238.6C298.49,235.76 303.86,235.16 309.3,237.05C312.86,238.27 315.67,240.54 317.47,243.64C321.1,242.48 325.21,242.75 329.32,244.52C337.23,247.92 338.38,255.24 338.22,259.88C347.62,260.08 355.2,267.79 355.19,277.23C355.19,279.48 354.74,281.74 353.88,283.8C356.49,285.11 360.94,286.94 364.88,286.46C368.62,285.99 369.74,284.79 370,284.43C370.03,284.4 370.05,284.36 370.07,284.33L359.48,272.63C357.63,270.89 357.16,269.11 358.27,267.89C358.73,267.37 359.38,267.08 360.09,267.08C361.32,267.08 362.37,267.97 363.14,268.62C368.88,273.41 375.76,280.51 375.83,280.58L376,280.77C376.15,280.95 376.59,281.31 378.05,281.57C378.54,281.66 379.08,281.71 379.64,281.71C380.71,281.71 383.42,281.53 385.4,279.91C385.76,279.6 386.15,279.23 386.52,278.84L386.93,278.31C388.73,276.01 387.02,273.67 386.66,273.22L373.77,258.72C373.77,258.72 373.26,258.24 372.83,257.65C371.43,255.78 372.06,254.55 372.56,253.98C373.04,253.47 373.67,253.21 374.33,253.21C375.48,253.21 376.55,253.97 377.53,254.79C380.98,257.68 385.67,262.29 390.2,266.75L393.05,269.57C393.4,269.8 395.11,270.85 397.49,270.86C399.39,270.86 401.34,270.21 403.28,268.93C405.97,267.18 407.22,265.03 407.1,262.38C406.9,260.06 404.97,258.21 404.95,258.19L387.22,240.35C385.39,238.79 384.85,236.9 385.9,235.6C386.35,235.04 387.1,234.75 387.76,234.73C388.91,234.73 389.92,235.49 390.93,236.34C394.08,238.98 400.78,244.98 410.84,254.16C411.42,254.69 411.78,255.01 411.83,255.06C411.83,255.06 413.67,256.33 416.38,256.34C418.17,256.34 419.97,255.78 421.72,254.67C423.64,253.45 424.75,251.69 424.85,249.73C425.03,246.16 422.53,243.95 422.51,243.93C417.78,239.79 377.32,204.4 367.91,197.32C362.47,193.22 359.45,192.15 356.33,191.75C356,191.7 355.65,191.7 355.28,191.69C354.03,191.69 352.42,191.91 351.1,192.26C346.3,193.57 340,198.05 335.55,201.58C329.76,206.17 324.34,210.48 319.05,211.66C317.39,212.03 315.57,212.26 313.69,212.22C308.7,212.21 303.31,210.83 300.28,208.78C298.59,207.64 297.37,206.28 296.76,204.84C295.19,201.18 297.54,198.24 298.62,197.14L310.79,184C310.88,183.91 310.96,183.83 311.04,183.75C309.29,184.17 307.57,184.64 305.73,185.16C301.31,186.39 296.84,187.64 292.3,187.64L292.28,187.64C290.76,187.64 289.26,187.51 287.8,187.4L286.34,187.29C279.96,186.88 259.68,181.73 241.8,174.54C241.82,174.52 241.84,174.5 241.86,174.49L246.8,170.7C271.93,152.52 308.47,140.91 349.24,140.57C391.35,140.22 429.14,151.97 454.63,170.77L459.53,174.58C459.86,174.85 460.15,175.14 460.47,175.41L458.87,176.15C444.74,182.61 431.55,185.76 418.54,185.76L418.48,185.76C405.98,185.74 393.54,182.74 381.52,176.86C380.15,176.22 367.67,170.59 355.07,170.57C354.75,170.57 354.41,170.57 354.09,170.59C334.01,171.03 325.26,179.77 315.99,189.01L304.01,201.91C303.77,202.22 303.66,202.41 303.62,202.52C305,204.08 308.6,205.17 312.5,205.18C314.17,205.18 315.84,204.99 317.47,204.63C321.13,203.82 326.14,199.84 330.99,196L331.33,195.73C336.71,191.46 342.27,187.05 347.95,185.26C350.45,184.46 352.86,184.06 355.12,184.06L355.15,184.06C357.59,184.06 359.49,184.53 360.86,184.95C363.86,185.84 367.27,187.82 372.25,191.58C380.39,197.69 408.91,222.47 425.49,236.97C434.72,232.9 458.11,223.29 486.89,216.92C486.89,216.92 486.89,216.88 486.91,216.81C486.95,217.02 487.02,217.22 487.06,217.44L487.91,223.39C488.03,224.85 488.11,226.32 488.12,227.8C488.53,276.6 427.02,316.68 350.72,317.32L350.73,317.3Z" style="fill:white;fill-rule:nonzero;"/>
        <path d="M338.02,266.3C336.44,266.3 334.74,266.88 333.62,267.27C332.85,267.53 332.39,267.7 332.02,267.7L331.78,267.7L331.45,267.54C331.21,267.38 331.09,267.15 331.03,266.88C330.7,266.4 330.8,265.65 331.38,264.23C331.41,264.16 333.16,259.25 331.65,255.01C330.91,253.16 329.53,251.47 327.05,250.4C325.37,249.67 323.74,249.32 322.22,249.31C318.88,249.31 316.74,251.01 315.77,252.04C315.53,252.29 315.2,252.57 314.76,252.57C314.62,252.57 314.04,252.49 313.81,251.78C313.69,251.61 313.6,251.38 313.57,251.05C313.52,250.34 313.37,249.27 312.96,248.12C312.19,246.17 310.64,244.06 307.49,243.09C306.2,242.69 304.92,242.49 303.68,242.49C297.16,242.49 293.62,247.86 293.48,248.09L292.19,250.1L292.14,249.73C292.14,249.73 292.08,249.77 292.07,249.77C291.8,249.7 291.76,247.41 291.76,247.41C291.7,246.9 291.58,246.4 291.43,245.92C290.22,242.48 286.97,240.06 283.23,240.06C278.4,240.06 274.46,243.99 274.45,248.85C274.45,249.95 274.68,251 275.05,251.97C276.39,255.09 279.49,257.27 283.09,257.28C285.35,257.28 287.13,255.9 289.15,254.83C289.7,254.54 290.27,254.5 290.44,254.74C290.6,254.96 290.65,255.21 290.67,255.48C290.78,255.7 290.84,255.95 290.8,256.26C290.6,257.46 290.33,260.05 291.16,262.76C292.05,265.35 293.99,267.99 298.03,269.56C299.05,269.96 300.07,270.15 301.07,270.16C302.88,270.16 304.66,269.54 306.52,268.23C306.97,267.91 307.31,267.76 307.63,267.78C307.85,267.8 308.19,267.87 308.42,268.13C308.6,268.33 308.67,268.57 308.69,268.81C308.83,269.14 308.85,269.5 308.79,269.86C308.69,270.53 308.65,271.56 308.96,272.73C309.58,274.6 311.13,276.73 314.88,278.25C316.17,278.78 317.39,279.04 318.52,279.04C321,279.04 322.7,277.79 324.04,276.55C324.51,276.12 324.93,275.83 325.4,275.83C326.1,275.83 326.38,276.34 326.51,276.85C326.73,277.29 326.77,277.83 326.78,278.12C326.83,279.5 327.16,280.79 327.66,281.99C329.44,285.82 333.33,288.46 337.86,288.47C344.07,288.47 349.13,283.43 349.14,277.23C349.14,275.77 348.84,274.38 348.32,273.1C346.57,269.15 342.62,266.36 338.02,266.3Z" style="fill:white;fill-rule:nonzero;"/>
    </g>
</svg>
